<svg width="630" height="70" viewBox="0 0 630 70" fill="none" xmlns="http://www.w3.org/2000/svg">
<path d="M52.905 54.1405H39.2534L37.9923 44.6782H18.9161L14.4723 54.1405H0L23.1597 9.99706C27.6035 1.43991 30.506 0 36.1307 0C40.4344 0 44.5979 1.43991 45.9191 9.99706L52.885 54.1405H52.905ZM33.9089 13.0414L24.701 32.4802H36.431L33.9089 13.0414ZM81.6495 54.9016C64.5149 54.9016 54.5664 42.0864 57.9093 24.5607C60.5715 9.91478 70.9003 0 87.2943 0C105.109 0 114.377 13.5763 111.255 29.9706C108.212 45.6862 98.1235 54.9016 81.6495 54.9016ZM82.6904 41.7778C91.5979 41.7778 96.2019 36.3679 97.6031 28.3661C99.0843 20.1381 95.8215 13.1237 86.5536 13.1237C78.3267 13.1237 73.1222 17.6903 71.5609 26.4737C70.0796 34.4138 73.2623 41.7984 82.6904 41.7984V41.7778ZM103.328 61.0726L101.687 70L71.701 64.0552L60.7917 67.2642L62.4331 58.8716L72.6018 55.9712L103.328 61.0726ZM136.656 54.9016C120.322 54.9016 114.397 45.3776 116.839 30.814L121.964 0.761093H135.535L130.191 32.0276C129.23 37.7461 130.851 42.3127 137.677 42.3127C144.503 42.3127 146.885 37.7461 147.846 32.0276L153.19 0.761093H166.762L161.057 33.8584C158.895 46.1387 152.75 54.9016 136.636 54.9016H136.656ZM212.481 54.1405H198.829L197.568 44.6782H178.492L174.048 54.1405H159.576L182.735 9.99706C187.179 1.46048 190.082 0 195.727 0C200.03 0 204.194 1.43991 205.515 9.99706L212.481 54.1405ZM193.485 13.0414L184.277 32.4802H196.007L193.485 13.0414ZM252.074 54.9016C236.201 54.9016 229.515 47.5786 231.517 35.8331H245.769C244.808 41.3253 248.892 43.156 253.636 43.156C258.68 43.156 261.643 41.7161 262.243 38.6512C262.904 34.9897 258.02 33.6938 251.774 32.1716C241.005 29.4975 235.08 24.1698 237.002 14.0905C238.563 5.88304 245.008 0 259.561 0C274.113 0 279.818 7.32295 278.037 17.0115H264.305C264.965 13.8848 263.044 11.5192 258.14 11.5192C254.216 11.5192 251.314 12.8152 250.873 15.263C250.133 19.1507 253.996 20.0764 259.181 21.3723C271.711 24.499 278.097 29.2301 276.175 39.9882C274.534 48.9774 267.347 54.9427 252.054 54.9427L252.074 54.9016ZM326.218 0.761093L323.996 13.7202H300.396L298.994 21.722H319.332L317.47 32.8504H297.073L295.672 41.1607H319.272L317.05 54.1199H288.926C283.441 54.1199 280.619 49.9236 281.5 44.8222L289.066 0.740523H326.238L326.218 0.761093ZM370.775 0.761093L368.554 13.7202H344.954L343.552 21.722H363.89L362.028 32.8504H341.631L340.229 41.1607H363.83L361.608 54.1199H333.484C327.999 54.1199 325.177 49.9236 326.057 44.8222L333.624 0.740523H370.796L370.775 0.761093ZM409.769 0.761093H426.243L402.863 26.6177L416.675 54.1405H402.122L392.474 33.7144H386.089L382.526 54.1405H368.954L378.162 0.761093H391.733L388.31 20.7346H392.094L409.769 0.761093ZM468.018 0.761093L465.796 13.7202H442.196L440.795 21.722H461.132L459.271 32.8504H438.873L437.472 41.1607H461.072L458.85 54.1199H430.727C425.242 54.1199 422.419 49.9236 423.3 44.8222L430.867 0.740523H468.038L468.018 0.761093ZM475.324 0.761093H496.402C509.754 0.761093 517.921 7.6315 515.779 20.2821C514.518 27.9753 510.514 32.871 503.689 35.1543L510.655 54.1405H496.342L490.257 36.5942H482.771L479.728 54.1405H466.217L475.344 0.761093H475.324ZM493.2 12.9592H486.814L484.652 25.1572H492.079C498.084 25.1572 501.287 24.0876 502.027 19.665C502.908 14.2551 498.844 12.9592 493.2 12.9592Z" fill="url(#paint0_linear_938_3131)"/>
<path d="M591.181 44.5504C591.181 45.3385 591.484 45.975 592.089 46.46C592.725 46.945 593.74 47.1875 595.133 47.1875C596.526 47.1875 597.692 46.748 598.63 45.8689C599.599 44.9596 600.084 43.8381 600.084 42.5043C600.084 41.1706 599.736 40.1249 599.039 39.3671C598.373 38.579 597.54 38.1849 596.541 38.1849C594.754 38.1849 593.376 38.579 592.407 39.3671L591.908 39.7763H584.14L587.456 20.8618H609.668L608.396 28.0002H593.906L593.134 32.5015C594.467 31.8043 596.465 31.4557 599.13 31.4557C601.825 31.4557 604.036 32.2893 605.762 33.9565C607.518 35.6236 608.396 37.8818 608.396 40.7311C608.396 44.7323 607.185 47.9908 604.762 50.5066C602.34 52.9922 598.827 54.235 594.224 54.235C589.621 54.235 586.457 53.3862 584.731 51.6888C583.459 50.446 582.823 48.7031 582.823 46.46C582.823 45.6719 582.899 44.8232 583.05 43.9138H591.226C591.196 44.126 591.181 44.3382 591.181 44.5504Z" fill="url(#paint1_linear_938_3131)"/>
<path d="M565.256 33.5012C565.256 34.3802 565.362 35.0319 565.574 35.4563H557.535C557.353 34.7288 557.262 33.7892 557.262 32.6373C557.262 28.9696 558.488 26.0445 560.941 23.8621C563.424 21.6493 566.967 20.543 571.57 20.543C578.929 20.543 582.608 23.5135 582.608 29.4546C582.608 31.5764 582.093 33.5618 581.063 35.4108C580.034 37.2295 578.777 38.73 577.293 39.9121C575.81 41.064 574.326 42.0794 572.842 42.9584C571.358 43.8072 570.071 44.5346 568.981 45.1409C567.891 45.7168 567.3 46.1563 567.21 46.4594V46.5049H579.337L578.066 53.5978H554.31L554.9 50.2332C555.233 48.3236 555.96 46.6262 557.08 45.1409C558.201 43.6253 559.473 42.4431 560.896 41.5944C562.319 40.7457 563.818 39.9121 565.393 39.0937C566.998 38.245 568.451 37.5023 569.753 36.8658C571.055 36.1989 572.13 35.3502 572.978 34.3196C573.856 33.289 574.295 32.1372 574.295 30.8641C574.295 28.6817 573.069 27.5904 570.616 27.5904C568.92 27.5904 567.603 28.136 566.664 29.2273C565.726 30.2882 565.256 31.7128 565.256 33.5012Z" fill="url(#paint2_linear_938_3131)"/>
<path d="M538.24 32.0462C538.24 32.5009 538.316 32.9556 538.467 33.4103H530.428C530.276 32.8647 530.2 32.1523 530.2 31.2733C530.2 27.9693 531.397 25.3625 533.789 23.4529C536.181 21.5129 539.618 20.543 544.1 20.543C547.673 20.543 550.383 21.3008 552.23 22.8163C554.078 24.3016 555.001 26.3628 555.001 28.9999C555.001 31.1521 554.289 33.1829 552.866 35.0926C551.443 37.0022 549.808 37.957 547.961 37.957V38.0934C549.384 38.0934 550.519 38.5936 551.367 39.5938C552.215 40.5941 552.639 41.8975 552.639 43.504C552.639 50.6576 547.885 54.2344 538.376 54.2344C534.41 54.2344 531.487 53.325 529.61 51.5063C528.217 50.1726 527.521 48.3236 527.521 45.9593C527.521 45.1106 527.611 44.2012 527.793 43.2312H535.969C535.909 43.5647 535.878 43.8829 535.878 44.1861C535.878 46.1866 537.18 47.1869 539.785 47.1869C541.147 47.1869 542.283 46.7929 543.191 46.0048C544.1 45.2167 544.554 44.2467 544.554 43.0948C544.554 41.3368 543.403 40.4577 541.102 40.4577H536.514L537.423 35.5018H541.056C542.631 35.4715 543.948 34.9865 545.008 34.0468C546.098 33.0768 546.643 32.0311 546.643 30.9096C546.643 29.788 546.295 28.9545 545.599 28.4088C544.932 27.8632 543.933 27.5904 542.601 27.5904C541.268 27.5904 540.209 27.9996 539.421 28.8181C538.634 29.6062 538.24 30.6822 538.24 32.0462Z" fill="url(#paint3_linear_938_3131)"/>
<path d="M623.532 44.5051H626.992C628.755 44.5051 630 45.5774 630 47.2425C630 49.5536 628.296 50.9656 625.921 50.9656H623.905L623.233 54.1159H621.496L623.532 44.5051ZM624.969 45.9437L624.197 49.5403H625.874C627.318 49.5403 628.243 48.7277 628.243 47.3957C628.243 46.4566 627.598 45.9437 626.54 45.9437H624.969Z" fill="url(#paint4_linear_938_3131)"/>
<path d="M619.76 54.1157H618.004L618.895 49.9596H614.284L613.399 54.1157H611.643L613.685 44.5049H615.442L614.59 48.4877H619.195L620.046 44.5049H621.803L619.76 54.1157Z" fill="url(#paint5_linear_938_3131)"/>
<defs>
<linearGradient id="paint0_linear_938_3131" x1="275.227" y1="-4.07147e-08" x2="275.227" y2="70" gradientUnits="userSpaceOnUse">
<stop stop-color="white"/>
<stop offset="1" stop-color="#CDCDCD"/>
</linearGradient>
<linearGradient id="paint1_linear_938_3131" x1="596.246" y1="20.8618" x2="596.246" y2="54.235" gradientUnits="userSpaceOnUse">
<stop stop-color="#FFD597"/>
<stop offset="1" stop-color="#FF3D00"/>
</linearGradient>
<linearGradient id="paint2_linear_938_3131" x1="568.459" y1="20.543" x2="568.459" y2="53.5978" gradientUnits="userSpaceOnUse">
<stop stop-color="#FFD597"/>
<stop offset="1" stop-color="#FF3D00"/>
</linearGradient>
<linearGradient id="paint3_linear_938_3131" x1="541.261" y1="20.543" x2="541.261" y2="54.2344" gradientUnits="userSpaceOnUse">
<stop stop-color="#FFD597"/>
<stop offset="1" stop-color="#FF3D00"/>
</linearGradient>
<linearGradient id="paint4_linear_938_3131" x1="625.748" y1="44.5051" x2="625.748" y2="54.1159" gradientUnits="userSpaceOnUse">
<stop stop-color="#FFD597"/>
<stop offset="1" stop-color="#FF3D00"/>
</linearGradient>
<linearGradient id="paint5_linear_938_3131" x1="616.723" y1="44.5049" x2="616.723" y2="54.1157" gradientUnits="userSpaceOnUse">
<stop stop-color="#FFD597"/>
<stop offset="1" stop-color="#FF3D00"/>
</linearGradient>
</defs>
</svg>
