<svg width="24" height="24" viewBox="0 0 24 24" fill="none" xmlns="http://www.w3.org/2000/svg">
<path d="M12 16.5V9.75004M12 9.75004L15 12.75M12 9.75004L9.00001 12.75M6.75001 19.5C5.67944 19.5012 4.64353 19.1207 3.82831 18.4267C3.01309 17.7328 2.47196 16.771 2.30212 15.714C2.13227 14.657 2.34484 13.574 2.90163 12.6596C3.45842 11.7453 4.32297 11.0593 5.34001 10.725C5.07871 9.38621 5.34877 7.99825 6.09299 6.85506C6.83722 5.71188 7.99718 4.90324 9.32723 4.6004C10.6573 4.29755 12.053 4.52428 13.2188 5.23256C14.3846 5.94084 15.2289 7.07507 15.573 8.39505C16.105 8.22202 16.6748 8.2012 17.218 8.33494C17.7612 8.46868 18.2562 8.75165 18.6471 9.15189C19.038 9.55212 19.3092 10.0537 19.43 10.5999C19.5509 11.1461 19.5166 11.7153 19.331 12.243C20.1497 12.5557 20.833 13.1451 21.2626 13.909C21.6921 14.6728 21.8407 15.563 21.6826 16.4249C21.5245 17.2869 21.0697 18.0663 20.3971 18.628C19.7244 19.1897 18.8763 19.4982 18 19.5H6.75001Z" stroke="white" stroke-width="1.5" stroke-linecap="round" stroke-linejoin="round"/>
</svg>
