<svg width="379" height="15" viewBox="0 0 379 15" fill="none" xmlns="http://www.w3.org/2000/svg">
<path d="M0.168599 6.70644C0.896379 2.66655 3.69314 0 8.09621 0C12.2498 0 14.5631 2.60241 14.6618 6.12396H11.2776C11.0957 4.39258 9.97804 3.14213 7.89347 3.14213C5.4814 3.14213 3.92187 4.53686 3.4748 7.14463C3.02774 9.60276 3.99984 11.8311 6.81739 11.8311C9.00593 11.8311 10.3263 10.7089 10.9502 8.89204H14.3759C13.383 12.7449 10.7266 15 6.55227 15C2.01404 15 -0.725532 11.4998 0.168599 6.70644Z" fill="url(#paint0_linear_938_3091)"/>
<path d="M23.0936 8.45355L24.5128 0.202759H27.7982L26.3167 8.68334C26.01 10.5376 26.4362 11.9537 28.5468 11.9537C30.6574 11.9537 31.3435 10.5163 31.6503 8.68334L33.111 0.202759H36.3964L34.8577 9.12152C34.2495 12.4934 32.6484 14.9997 28.3337 14.9997C24.019 14.9997 22.4334 12.3545 23.104 8.4589L23.0936 8.45355Z" fill="url(#paint1_linear_938_3091)"/>
<path d="M43.5029 9.85386H46.9495C46.648 11.5639 47.8384 12.1463 49.3407 12.1463C50.8431 12.1463 51.7944 11.644 51.9971 10.6875C52.2415 9.43705 50.7183 8.99886 49.0392 8.58204C46.1385 7.82857 44.5582 6.35369 45.0884 3.66577C45.5147 1.4962 47.2562 -6.10352e-05 50.9886 -6.10352e-05C54.9187 -6.10352e-05 56.3794 1.95576 55.896 4.52077H52.5898C52.7925 3.50011 52.1843 2.78939 50.6456 2.78939C49.4915 2.78939 48.6182 3.14208 48.457 3.93296C48.1919 5.11928 49.2888 5.49334 50.8275 5.91549C54.0505 6.74912 55.9168 8.02094 55.3657 10.9761C54.9187 13.4342 52.9329 14.9999 48.982 14.9999C44.7661 14.9999 42.9831 13.0388 43.5081 9.85386H43.5029Z" fill="url(#paint2_linear_938_3091)"/>
<path d="M66.2043 14.7913L68.1694 3.32887H64.624L65.1283 0.202759H75.6083L75.0417 3.32887H71.434L69.4482 14.7913H66.2043Z" fill="url(#paint3_linear_938_3091)"/>
<path d="M82.3352 6.70638C83.063 2.66649 85.8598 -6.10352e-05 90.2576 -6.10352e-05C95.0402 -6.10352e-05 97.5354 3.68714 96.6829 8.20798C95.8719 12.4777 93.1376 14.9999 88.7397 14.9999C84.0975 14.9999 81.4411 11.4997 82.3352 6.70638ZM93.3819 7.82857C93.8498 5.2689 92.8568 3.14207 90.0757 3.14207C87.6428 3.14207 86.0833 4.5368 85.6362 7.14457C85.1684 9.64545 86.1821 11.8311 88.9996 11.8311C91.552 11.8311 92.9712 10.2493 93.3767 7.82857H93.3819Z" fill="url(#paint4_linear_938_3091)"/>
<path d="M122.571 2.5377L121.438 14.791H118.194L119.312 4.83018L114.669 13.6848C114.144 14.7055 113.593 14.9139 112.866 14.9139C112.096 14.9139 111.509 14.7055 111.327 13.6848L109.746 4.76606L107.433 14.791H104.091L107.152 2.74611C107.698 0.662039 108.65 0.0154419 109.928 0.0154419C111.368 0.0154419 111.67 0.640662 111.914 1.93386L113.417 10.5801L117.934 1.93386C118.807 0.266597 119.598 0.0154419 120.611 0.0154419C121.869 0.0154419 122.737 0.640664 122.576 2.5377H122.571Z" fill="url(#paint5_linear_938_3091)"/>
<path d="M161.144 2.5377L160.01 14.791H156.766L157.879 4.83018L153.237 13.6848C152.712 14.7055 152.161 14.9139 151.433 14.9139C150.663 14.9139 150.076 14.7055 149.894 13.6848L148.314 4.76606L146.006 14.791H142.663L145.725 2.74611C146.271 0.662039 147.227 0.0154419 148.501 0.0154419C149.941 0.0154419 150.242 0.640662 150.487 1.93386L151.984 10.5801L156.507 1.93386C157.38 0.266597 158.17 0.0154419 159.184 0.0154419C160.442 0.0154419 161.31 0.640664 161.149 2.5377H161.144Z" fill="url(#paint6_linear_938_3091)"/>
<path d="M175.387 0.202759L174.883 3.16322L172.876 14.7913H169.611L170.121 11.8308L172.127 0.202759H175.392H175.387Z" fill="url(#paint7_linear_938_3091)"/>
<path d="M195.068 0.201645H198.354L196.165 12.9305C195.942 14.2451 195.089 14.9719 194.018 14.9719C193.166 14.9719 192.62 14.6405 192.256 13.9298L187.775 5.53474L186.174 14.7848H182.909L185.098 2.11472C185.342 0.655867 186.111 0.00927734 187.146 0.00927734C187.733 0.00927734 188.279 0.260431 188.643 0.96581L193.405 9.92733L195.068 0.196305V0.201645Z" fill="url(#paint8_linear_938_3091)"/>
<path d="M211.651 0.202759L211.147 3.16322L209.141 14.7913H205.876L206.385 11.8308L208.392 0.202759H211.657H211.651Z" fill="url(#paint9_linear_938_3091)"/>
<path d="M236.088 0.201813H239.374L237.617 10.3496C237.05 13.5773 235.569 14.785 233.016 14.785H231.254L231.763 11.8245H232.756C233.77 11.8245 234.155 11.3863 234.337 10.3229L236.094 0.196472L236.088 0.201813Z" fill="url(#paint10_linear_938_3091)"/>
<path d="M258.713 3.32969H252.022L251.555 6.03899H257.372L256.904 8.79103H251.066L250.562 11.666H257.252L256.727 14.7921H248.924C247.609 14.7921 246.938 13.7714 247.141 12.5424L249.267 0.208923H259.259L258.713 3.33503V3.32969Z" fill="url(#paint11_linear_938_3091)"/>
<path d="M268.683 14.7913L270.648 3.32887H267.103L267.612 0.202759H278.092L277.525 3.32887H273.918L271.932 14.7913H268.688H268.683Z" fill="url(#paint12_linear_938_3091)"/>
<path d="M294.847 6.7497C296.895 7.18789 297.643 8.83378 297.3 10.811C296.874 13.3119 294.971 14.7921 291.805 14.7921H284.507L287.018 0.208923H293.162C296.245 0.208923 298.272 1.45936 297.825 4.003C297.581 5.5046 296.526 6.39702 294.847 6.75505V6.7497ZM291.686 8.41696H288.889L288.281 11.8744H291.343C292.902 11.8744 293.796 11.2919 293.958 10.2499C294.181 8.87652 293.349 8.41696 291.686 8.41696ZM289.82 3.0625L289.31 5.91607H292.149C293.448 5.91607 294.176 5.41376 294.316 4.58013C294.519 3.45259 293.807 3.05716 292.388 3.05716H289.814L289.82 3.0625Z" fill="url(#paint13_linear_938_3091)"/>
<path d="M306.257 6.70638C306.985 2.66649 309.787 -6.10352e-05 314.184 -6.10352e-05C318.967 -6.10352e-05 321.462 3.68714 320.61 8.20798C319.799 12.4777 317.064 14.9999 312.666 14.9999C308.024 14.9999 305.368 11.4997 306.262 6.70638H306.257ZM317.303 7.82857C317.771 5.2689 316.778 3.14207 314.002 3.14207C311.57 3.14207 310.01 4.5368 309.563 7.14457C309.095 9.64545 310.109 11.8311 312.926 11.8311C315.479 11.8311 316.898 10.2493 317.303 7.82857Z" fill="url(#paint14_linear_938_3091)"/>
<path d="M337.495 14.791L337.089 11.8947H331.636L330.217 14.791H326.692L333.258 2.39342C334.334 0.373473 335.041 0.0154419 336.398 0.0154419C337.432 0.0154419 338.425 0.36813 338.748 2.39342L340.775 14.791H337.49H337.495ZM333.076 8.93421H336.663L335.852 3.20568L333.076 8.93421Z" fill="url(#paint15_linear_938_3091)"/>
<path d="M350.688 14.7913L352.653 3.32887H349.107L349.617 0.202759H360.097L359.53 3.32887H355.923L353.937 14.7913H350.693H350.688Z" fill="url(#paint16_linear_938_3091)"/>
<path d="M366.518 9.85386H369.964C369.663 11.5639 370.858 12.1463 372.356 12.1463C373.853 12.1463 374.809 11.644 375.012 10.6875C375.256 9.43705 373.733 8.99886 372.054 8.58204C369.153 7.82857 367.573 6.35369 368.103 3.66577C368.53 1.4962 370.271 -6.10352e-05 374.004 -6.10352e-05C377.939 -6.10352e-05 379.394 1.95576 378.911 4.52077H375.605C375.807 3.50011 375.199 2.78939 373.66 2.78939C372.506 2.78939 371.633 3.14208 371.472 3.93296C371.207 5.11928 372.304 5.49334 373.842 5.91549C377.065 6.74912 378.932 8.02094 378.381 10.9761C377.934 13.4342 375.948 14.9999 371.997 14.9999C367.781 14.9999 365.998 13.0388 366.523 9.85386H366.518Z" fill="url(#paint17_linear_938_3091)"/>
<defs>
<linearGradient id="paint0_linear_938_3091" x1="7.33092" y1="0" x2="7.33092" y2="15" gradientUnits="userSpaceOnUse">
<stop stop-color="#FAFF00"/>
<stop offset="1" stop-color="#FDFF86"/>
</linearGradient>
<linearGradient id="paint1_linear_938_3091" x1="29.6762" y1="0.202759" x2="29.6762" y2="14.9997" gradientUnits="userSpaceOnUse">
<stop stop-color="#FAFF00"/>
<stop offset="1" stop-color="#FDFF86"/>
</linearGradient>
<linearGradient id="paint2_linear_938_3091" x1="49.7019" y1="-6.10352e-05" x2="49.7019" y2="14.9999" gradientUnits="userSpaceOnUse">
<stop stop-color="#FAFF00"/>
<stop offset="1" stop-color="#FDFF86"/>
</linearGradient>
<linearGradient id="paint3_linear_938_3091" x1="70.1162" y1="0.202759" x2="70.1162" y2="14.7913" gradientUnits="userSpaceOnUse">
<stop stop-color="#FAFF00"/>
<stop offset="1" stop-color="#FDFF86"/>
</linearGradient>
<linearGradient id="paint4_linear_938_3091" x1="89.5055" y1="-6.10352e-05" x2="89.5055" y2="14.9999" gradientUnits="userSpaceOnUse">
<stop stop-color="#FAFF00"/>
<stop offset="1" stop-color="#FDFF86"/>
</linearGradient>
<linearGradient id="paint5_linear_938_3091" x1="113.343" y1="0.0154419" x2="113.343" y2="14.9139" gradientUnits="userSpaceOnUse">
<stop stop-color="#FAFF00"/>
<stop offset="1" stop-color="#FDFF86"/>
</linearGradient>
<linearGradient id="paint6_linear_938_3091" x1="151.916" y1="0.0154419" x2="151.916" y2="14.9139" gradientUnits="userSpaceOnUse">
<stop stop-color="#FAFF00"/>
<stop offset="1" stop-color="#FDFF86"/>
</linearGradient>
<linearGradient id="paint7_linear_938_3091" x1="172.502" y1="0.202759" x2="172.502" y2="14.7913" gradientUnits="userSpaceOnUse">
<stop stop-color="#FAFF00"/>
<stop offset="1" stop-color="#FDFF86"/>
</linearGradient>
<linearGradient id="paint8_linear_938_3091" x1="190.631" y1="0.00927734" x2="190.631" y2="14.9719" gradientUnits="userSpaceOnUse">
<stop stop-color="#FAFF00"/>
<stop offset="1" stop-color="#FDFF86"/>
</linearGradient>
<linearGradient id="paint9_linear_938_3091" x1="208.766" y1="0.202759" x2="208.766" y2="14.7913" gradientUnits="userSpaceOnUse">
<stop stop-color="#FAFF00"/>
<stop offset="1" stop-color="#FDFF86"/>
</linearGradient>
<linearGradient id="paint10_linear_938_3091" x1="235.314" y1="0.196472" x2="235.314" y2="14.785" gradientUnits="userSpaceOnUse">
<stop stop-color="#FAFF00"/>
<stop offset="1" stop-color="#FDFF86"/>
</linearGradient>
<linearGradient id="paint11_linear_938_3091" x1="253.182" y1="0.208923" x2="253.182" y2="14.7921" gradientUnits="userSpaceOnUse">
<stop stop-color="#FAFF00"/>
<stop offset="1" stop-color="#FDFF86"/>
</linearGradient>
<linearGradient id="paint12_linear_938_3091" x1="272.597" y1="0.202759" x2="272.597" y2="14.7913" gradientUnits="userSpaceOnUse">
<stop stop-color="#FAFF00"/>
<stop offset="1" stop-color="#FDFF86"/>
</linearGradient>
<linearGradient id="paint13_linear_938_3091" x1="291.197" y1="0.208923" x2="291.197" y2="14.7921" gradientUnits="userSpaceOnUse">
<stop stop-color="#FAFF00"/>
<stop offset="1" stop-color="#FDFF86"/>
</linearGradient>
<linearGradient id="paint14_linear_938_3091" x1="313.432" y1="-6.10352e-05" x2="313.432" y2="14.9999" gradientUnits="userSpaceOnUse">
<stop stop-color="#FAFF00"/>
<stop offset="1" stop-color="#FDFF86"/>
</linearGradient>
<linearGradient id="paint15_linear_938_3091" x1="333.734" y1="0.0154419" x2="333.734" y2="14.791" gradientUnits="userSpaceOnUse">
<stop stop-color="#FAFF00"/>
<stop offset="1" stop-color="#FDFF86"/>
</linearGradient>
<linearGradient id="paint16_linear_938_3091" x1="354.602" y1="0.202759" x2="354.602" y2="14.7913" gradientUnits="userSpaceOnUse">
<stop stop-color="#FAFF00"/>
<stop offset="1" stop-color="#FDFF86"/>
</linearGradient>
<linearGradient id="paint17_linear_938_3091" x1="372.717" y1="-6.10352e-05" x2="372.717" y2="14.9999" gradientUnits="userSpaceOnUse">
<stop stop-color="#FAFF00"/>
<stop offset="1" stop-color="#FDFF86"/>
</linearGradient>
</defs>
</svg>
