<svg width="174" height="14" viewBox="0 0 174 14" fill="none" xmlns="http://www.w3.org/2000/svg">
<path d="M166.05 9.86234C166.05 10.7314 166.659 11.166 167.876 11.166C169.106 11.166 169.721 10.7755 169.721 9.99459C169.721 9.57894 169.512 9.23886 169.093 8.97435C168.675 8.70984 168.165 8.48942 167.562 8.31308C166.972 8.13674 166.376 7.93521 165.773 7.70849C165.183 7.46918 164.679 7.10391 164.261 6.61268C163.843 6.10886 163.634 5.48537 163.634 4.74224C163.634 1.58074 165.619 0 169.591 0C171.042 0 172.137 0.2834 172.875 0.850202C173.625 1.40441 174 2.17904 174 3.17409C174 3.53936 173.951 3.89203 173.852 4.23211C173.766 4.5596 173.674 4.79262 173.576 4.93117L173.428 5.15789H170.163C170.434 4.86819 170.569 4.50292 170.569 4.06207C170.569 3.24336 170.046 2.83401 169.001 2.83401C167.685 2.83401 167.028 3.26225 167.028 4.11875C167.028 4.547 167.237 4.88708 167.655 5.139C168.073 5.39091 168.577 5.59244 169.167 5.74358C169.77 5.88213 170.372 6.05847 170.975 6.2726C171.577 6.48672 172.088 6.8457 172.506 7.34952C172.924 7.84075 173.133 8.48312 173.133 9.27664C173.133 10.8763 172.666 12.0666 171.731 12.8475C170.797 13.6158 169.358 14 167.415 14C165.472 14 164.144 13.6473 163.431 12.942C162.902 12.4129 162.637 11.6824 162.637 10.7503C162.637 10.3976 162.674 10.0135 162.748 9.59783L162.803 9.29554H166.124L166.087 9.52226C166.062 9.64821 166.05 9.76157 166.05 9.86234Z" fill="black"/>
<path d="M162.834 3.07969H158.297L156.471 13.7355H153.132L154.958 3.07969H150.402L150.919 0.132324H163.351L162.834 3.07969Z" fill="black"/>
<path d="M147.558 13.7355H138.298L140.641 0.132324H149.9L149.384 3.07969H143.444L143.02 5.63029H147.927L147.41 8.57766H142.504L142.135 10.7882H148.074L147.558 13.7355Z" fill="black"/>
<path d="M130.72 13.9999C127.757 13.9999 126.275 12.8978 126.275 10.6936C126.275 10.3535 126.312 9.98821 126.386 9.59775L126.625 8.19964H129.946L129.835 8.82312C129.786 9.13801 129.761 9.4592 129.761 9.78668C129.761 10.1142 129.841 10.385 130.001 10.5991C130.247 10.914 130.653 11.0714 131.218 11.0714C131.784 11.0714 132.239 10.914 132.583 10.5991C132.94 10.2842 133.192 9.70481 133.34 8.86091L134.852 0.113281H138.154L136.604 9.12542C136.322 10.8006 135.707 12.035 134.76 12.8285C133.813 13.6094 132.466 13.9999 130.72 13.9999Z" fill="black"/>
<path d="M121.931 0.132324L119.607 13.7355H116.269L118.611 0.132324H121.931Z" fill="black"/>
<path d="M115.987 0.132324L113.663 13.7355H110.324L108 6.29156L106.746 13.7355H103.407L105.75 0.132324H109.18L111.468 7.08508L112.667 0.132324H115.987Z" fill="black"/>
<path d="M103.125 0.132324L100.801 13.7355H97.4624L99.805 0.132324H103.125Z" fill="black"/>
<path d="M87.4749 0.132324L89.4486 6.65053L93.6911 0.132324H97.1773L94.8347 13.7355H91.4961L92.8241 6.06484L89.9835 10.637H87.5671L86.3128 6.06484L84.9848 13.7355H81.6646L84.0071 0.132324H87.4749Z" fill="black"/>
<path d="M67.2464 0.132324L69.2201 6.65053L73.4626 0.132324H76.9488L74.6062 13.7355H71.2675L72.5956 6.06484L69.755 10.637H67.3386L66.0843 6.06484L64.7562 13.7355H61.436L63.7786 0.132324H67.2464Z" fill="black"/>
<path d="M56.3624 0C59.326 0 60.8077 1.24066 60.8077 3.72199C60.8077 4.13765 60.7647 4.58479 60.6786 5.06342L60.033 8.8421C59.7379 10.5929 59.0985 11.8902 58.1147 12.7341C57.1309 13.578 55.7475 14 53.9644 14C52.1814 14 50.9394 13.578 50.2384 12.7341C49.7588 12.1547 49.519 11.3549 49.519 10.3347C49.519 9.88123 49.5682 9.38371 49.6666 8.8421L50.3122 5.06342C50.8902 1.68781 52.9069 0 56.3624 0ZM54.4625 11.0715C55.0773 11.0715 55.5692 10.9078 55.9381 10.5803C56.307 10.2528 56.5653 9.64821 56.7128 8.76652L57.34 5.139C57.3769 4.88708 57.3953 4.66036 57.3953 4.45883C57.3953 3.43859 56.8911 2.92847 55.8828 2.92847C54.6162 2.95366 53.8599 3.6905 53.614 5.139L52.9868 8.76652C52.9376 9.08141 52.913 9.4089 52.913 9.74898C52.913 10.6307 53.4295 11.0715 54.4625 11.0715Z" fill="black"/>
<path d="M49.4948 3.07969H44.9572L43.1311 13.7355H39.7924L41.6186 3.07969H37.0625L37.579 0.132324H50.0113L49.4948 3.07969Z" fill="black"/>
<path d="M27.9056 9.86234C27.9056 10.7314 28.5143 11.166 29.7317 11.166C30.9614 11.166 31.5763 10.7755 31.5763 9.99459C31.5763 9.57894 31.3672 9.23886 30.9491 8.97435C30.531 8.70984 30.0207 8.48942 29.4181 8.31308C28.8279 8.13674 28.2315 7.93521 27.6289 7.70849C27.0387 7.46918 26.5345 7.10391 26.1164 6.61268C25.6983 6.10886 25.4892 5.48537 25.4892 4.74224C25.4892 1.58074 27.4752 0 31.4472 0C32.8982 0 33.9926 0.2834 34.7305 0.850202C35.4806 1.40441 35.8557 2.17904 35.8557 3.17409C35.8557 3.53936 35.8065 3.89203 35.7081 4.23211C35.622 4.5596 35.5298 4.79262 35.4314 4.93117L35.2838 5.15789H32.019C32.2895 4.86819 32.4248 4.50292 32.4248 4.06207C32.4248 3.24336 31.9021 2.83401 30.8569 2.83401C29.5411 2.83401 28.8832 3.26225 28.8832 4.11875C28.8832 4.547 29.0923 4.88708 29.5104 5.139C29.9285 5.39091 30.4326 5.59244 31.0229 5.74358C31.6255 5.88213 32.228 6.05847 32.8306 6.2726C33.4331 6.48672 33.9435 6.8457 34.3616 7.34952C34.7797 7.84075 34.9887 8.48312 34.9887 9.27664C34.9887 10.8763 34.5214 12.0666 33.5868 12.8475C32.6523 13.6158 31.2135 14 29.2706 14C27.3276 14 25.9996 13.6473 25.2863 12.942C24.7576 12.4129 24.4932 11.6824 24.4932 10.7503C24.4932 10.3976 24.5301 10.0135 24.6038 9.59783L24.6592 9.29554H27.9794L27.9425 9.52226C27.9179 9.64821 27.9056 9.76157 27.9056 9.86234Z" fill="black"/>
<path d="M20.7784 12.7531C19.8069 13.5844 18.4296 14.0001 16.6466 14.0001C14.8635 14.0001 13.6276 13.5781 12.939 12.7342C12.4471 12.1548 12.2012 11.355 12.2012 10.3347C12.2012 9.8813 12.2504 9.38377 12.3487 8.84216L13.8428 0.132324H17.163L15.6689 8.76659C15.6198 9.08148 15.5952 9.40897 15.5952 9.74905C15.5952 10.6307 16.1116 11.0716 17.1446 11.0716C17.7594 11.0716 18.2513 10.9078 18.6202 10.5804C18.9892 10.2529 19.2474 9.64828 19.395 8.76659L20.889 0.132324H24.2093L22.7152 8.84216C22.4077 10.6055 21.7621 11.9092 20.7784 12.7531Z" fill="black"/>
<path d="M4.35316 14C2.59468 14 1.37727 13.6095 0.700933 12.8286C0.233644 12.2744 0 11.4998 0 10.5047C0 10.0765 0.0430397 9.61672 0.129119 9.1255L0.885389 4.78002C1.43876 1.59334 3.43703 0 6.88021 0C8.30667 0 9.38881 0.314889 10.1266 0.944668C10.8645 1.56185 11.2334 2.41205 11.2334 3.49527C11.2334 3.9991 11.1596 4.50292 11.012 5.00674C10.8768 5.49797 10.7415 5.86324 10.6062 6.10256L10.4033 6.48042H7.13845C7.54425 6.00179 7.74715 5.32163 7.74715 4.43994C7.74715 3.9739 7.63033 3.60863 7.39668 3.34413C7.16304 3.06702 6.81872 2.92847 6.36373 2.92847C5.12173 2.92847 4.3839 3.63382 4.15026 5.04453L3.50466 8.86099C3.44318 9.18847 3.41244 9.50966 3.41244 9.82455C3.41244 10.6559 3.89817 11.0715 4.86964 11.0715C6.03786 11.0715 6.73879 10.3976 6.97244 9.04992H10.2926L10.2004 9.59783C9.70853 12.5326 7.75945 14 4.35316 14Z" fill="black"/>
</svg>
