<svg width="1050" height="730" viewBox="0 0 1050 730" fill="none" xmlns="http://www.w3.org/2000/svg">
<path d="M1050 0L837.947 578.034C802.838 668.722 714.996 727.894 618.341 727.894L149.894 730C44.4974 730 -28.3083 622.957 10.6473 524.758L51.2115 411.818H366.144C353.625 445.791 378.663 482.362 415.1 482.362H514.203C541.828 482.362 566.936 466.007 576.938 439.544L736.327 0H1050Z" fill="black" style="mix-blend-mode:luminosity"/>
<path d="M52.9699 414.318H362.676C352.347 448.908 378.099 484.862 415.1 484.862H514.203C542.82 484.862 568.89 467.908 579.276 440.428L579.282 440.412L579.288 440.396L738.08 2.5H1046.42L835.616 577.131C835.613 577.138 835.61 577.145 835.607 577.153C800.871 666.853 713.97 725.394 618.341 725.394H618.33L149.894 727.5C149.891 727.5 149.887 727.5 149.883 727.5C46.2581 727.492 -25.3322 622.234 12.9711 525.68L12.9863 525.641L13.0001 525.603L52.9699 414.318Z" stroke="url(#paint0_linear_1028_18)" stroke-opacity="0.5" stroke-width="5"/>
<defs>
<linearGradient id="paint0_linear_1028_18" x1="812.5" y1="27.5" x2="525" y2="730" gradientUnits="userSpaceOnUse">
<stop stop-color="white"/>
<stop offset="1"/>
</linearGradient>
</defs>
</svg>
