<svg width="77" height="30" viewBox="0 0 77 30" fill="none" xmlns="http://www.w3.org/2000/svg">
<path d="M70.5857 27.4944C70.5857 26.125 71.7146 25 73.1 25C74.4853 25 75.6142 26.125 75.6142 27.4944C75.6142 28.8639 74.4742 30 73.1 30C71.7258 30 70.5857 28.875 70.5857 27.4944ZM71.0888 27.4944C71.0888 28.6194 71.9822 29.4986 73.1 29.4986C74.2177 29.4986 75.1 28.6194 75.1 27.4944C75.1 26.3694 74.2177 25.5014 73.1 25.5014C71.9822 25.5014 71.0888 26.3806 71.0888 27.4944ZM72.1843 28.6417V26.3139H73.3132C73.8832 26.3139 74.162 26.7042 74.162 27.1486C74.162 27.4722 74.017 27.7722 73.7146 27.9056L74.2289 28.6403H73.67L73.2115 27.9833H72.6749V28.6403H72.1829L72.1843 28.6417ZM72.6763 26.7819V27.5278H73.2463C73.5139 27.5278 73.6714 27.35 73.6714 27.1486C73.6714 26.9597 73.5153 26.7806 73.2463 26.7806H72.6763V26.7819Z" fill="black"/>
<path d="M43.358 0L34.6012 23.7C33.1504 27.4181 29.5239 29.8444 25.5337 29.8444L6.19028 29.9306C1.83769 29.9306 -1.16717 25.5417 0.438396 21.5139L2.11365 16.8833H15.1184C14.6 18.2778 15.6369 19.775 17.1393 19.775H21.2327C22.3727 19.775 23.4083 19.1042 23.8236 18.0194L30.4048 0H43.358Z" fill="black"/>
<path d="M73.2026 17.5473L70.9225 23.7431C69.4717 27.4611 65.8452 29.8875 61.855 29.8875H42.4251C38.0726 29.8875 35.0677 25.4986 36.6733 21.4709L42.3109 6.18753C43.8147 2.46948 47.391 0.0430908 51.3798 0.0430908H70.8096C75.1622 0.0430908 78.1671 4.43198 76.5615 8.45976L74.7998 13.0028H61.795C62.3135 11.6084 61.2766 10.1111 59.7742 10.1111H55.6808C54.5407 10.1111 53.5052 10.8334 53.0899 11.8667L51.1206 16.875C50.5505 18.3209 51.5875 19.8181 53.0899 19.8181H57.4285C58.5686 19.8181 59.6041 19.1473 60.0195 18.0625L60.2271 17.5459H73.204L73.2026 17.5473Z" fill="black"/>
</svg>
