<svg width="270" height="46" viewBox="0 0 270 46" fill="none" xmlns="http://www.w3.org/2000/svg">
<g clip-path="url(#clip0_938_3058)">
<path d="M263.144 24.9677C263.144 23.1045 264.684 21.5728 266.573 21.5728C268.463 21.5728 270.003 23.1045 270.003 24.9677C270.003 26.8308 268.449 28.3789 266.573 28.3789C264.697 28.3789 263.144 26.8471 263.144 24.9677ZM263.829 24.9677C263.829 26.4995 265.047 27.6972 266.573 27.6972C268.099 27.6972 269.301 26.4995 269.301 24.9677C269.301 23.4359 268.097 22.2545 266.573 22.2545C265.049 22.2545 263.829 23.4522 263.829 24.9677ZM265.323 26.5294V23.3626H266.863C267.641 23.3626 268.02 23.8922 268.02 24.5005C268.02 24.9405 267.821 25.3506 267.411 25.5299L268.113 26.5294H267.351L266.726 25.6358H265.994V26.5294H265.323ZM265.994 23.9981V25.0139H266.772C267.138 25.0139 267.351 24.7721 267.351 24.4978C267.351 24.2398 267.138 23.9981 266.772 23.9981H265.994Z" fill="#FAFF00"/>
<path d="M34.7841 41.7849C35.1664 39.7316 36.6354 38.3763 38.9482 38.3763C41.1299 38.3763 42.3449 39.699 42.3968 41.4888H40.6193C40.5237 40.6088 39.9366 39.9733 38.8417 39.9733C37.5747 39.9733 36.7556 40.6822 36.5207 42.0076C36.2859 43.2569 36.7965 44.3895 38.2765 44.3895C39.426 44.3895 40.1196 43.8191 40.4472 42.8957H42.2466C41.7251 44.8539 40.3298 46 38.1372 46C35.7535 46 34.3145 44.2211 34.7841 41.7849Z" fill="#FAFF00"/>
<path d="M46.8257 42.673L47.5711 38.4796H49.2968L48.5186 42.7898C48.3575 43.7323 48.5814 44.452 49.69 44.452C50.7986 44.452 51.159 43.7214 51.3201 42.7898L52.0874 38.4796H53.8131L53.0049 43.0125C52.6854 44.7263 51.8444 46.0001 49.5781 46.0001C47.3117 46.0001 46.4789 44.6557 46.8311 42.6758L46.8257 42.673Z" fill="#FAFF00"/>
<path d="M57.5457 43.3846H59.356C59.1977 44.2537 59.8229 44.5497 60.6121 44.5497C61.4012 44.5497 61.9009 44.2944 62.0074 43.8082C62.1357 43.1727 61.3357 42.95 60.4537 42.7382C58.9301 42.3552 58.1 41.6056 58.3785 40.2395C58.6024 39.1368 59.5171 38.3763 61.4776 38.3763C63.5419 38.3763 64.3092 39.3704 64.0553 40.674H62.3187C62.4251 40.1553 62.1057 39.7941 61.2974 39.7941C60.6913 39.7941 60.2325 39.9733 60.1479 40.3753C60.0086 40.9782 60.5848 41.1683 61.393 41.3829C63.0859 41.8066 64.0662 42.453 63.7768 43.9549C63.5419 45.2042 62.4989 46 60.4237 46C58.2092 46 57.2726 45.0033 57.5484 43.3846H57.5457Z" fill="#FAFF00"/>
<path d="M69.47 45.8942L70.5021 40.0684H68.6399L68.9048 38.4796H74.4095L74.1119 40.0684H72.2169L71.1738 45.8942H69.47Z" fill="#FAFF00"/>
<path d="M77.9427 41.7849C78.325 39.7316 79.794 38.3763 82.104 38.3763C84.6161 38.3763 85.9268 40.2503 85.479 42.548C85.053 44.7181 83.6167 46 81.3067 46C78.8684 46 77.4731 44.2211 77.9427 41.7849ZM83.7451 42.3552C83.9908 41.0543 83.4693 39.9733 82.0085 39.9733C80.7306 39.9733 79.9114 40.6822 79.6766 42.0076C79.4308 43.2786 79.9633 44.3895 81.4432 44.3895C82.7839 44.3895 83.5294 43.5855 83.7423 42.3552H83.7451Z" fill="#FAFF00"/>
<path d="M99.0771 39.6664L98.4819 45.8941H96.778L97.3651 40.8316L94.9267 45.3319C94.651 45.8507 94.3615 45.9566 93.9792 45.9566C93.5751 45.9566 93.2666 45.8507 93.171 45.3319L92.3409 40.799L91.1259 45.8941H89.3701L90.9784 39.7724C91.2651 38.7132 91.7648 38.3845 92.4365 38.3845C93.1929 38.3845 93.3512 38.7023 93.4796 39.3595L94.2687 43.754L96.6415 39.3595C97.1002 38.5122 97.5153 38.3845 98.0477 38.3845C98.7085 38.3845 99.1645 38.7023 99.0799 39.6664H99.0771Z" fill="#FAFF00"/>
<path d="M119.338 39.6664L118.742 45.8941H117.039L117.623 40.8315L115.185 45.3319C114.909 45.8506 114.619 45.9565 114.237 45.9565C113.833 45.9565 113.524 45.8506 113.429 45.3319L112.599 40.7989L111.386 45.8941H109.631L111.239 39.7723C111.526 38.7131 112.028 38.3845 112.697 38.3845C113.453 38.3845 113.612 38.7022 113.74 39.3595L114.526 43.7539L116.902 39.3595C117.361 38.5121 117.776 38.3845 118.308 38.3845C118.969 38.3845 119.425 38.7022 119.34 39.6664H119.338Z" fill="#FAFF00"/>
<path d="M126.819 38.4796L126.554 39.9843L125.5 45.8942H123.785L124.053 44.3895L125.107 38.4796H126.822H126.819Z" fill="#FAFF00"/>
<path d="M137.157 38.4795H138.883L137.733 44.9489C137.616 45.6171 137.168 45.9864 136.605 45.9864C136.158 45.9864 135.871 45.818 135.68 45.4568L133.326 41.1901L132.485 45.8914H130.77L131.92 39.4519C132.048 38.7104 132.452 38.3818 132.996 38.3818C133.304 38.3818 133.591 38.5094 133.782 38.8679L136.283 43.4226L137.157 38.4768V38.4795Z" fill="#FAFF00"/>
<path d="M145.867 38.4796L145.602 39.9843L144.549 45.8942H142.834L143.101 44.3895L144.155 38.4796H145.87H145.867Z" fill="#FAFF00"/>
<path d="M157.598 38.4796H159.323L158.401 43.6372C158.103 45.2776 157.325 45.8914 155.984 45.8914H155.058L155.326 44.3868H155.847C156.38 44.3868 156.582 44.1641 156.678 43.6236L157.6 38.4769L157.598 38.4796Z" fill="#FAFF00"/>
<path d="M169.481 40.0685H165.967L165.721 41.4455H168.776L168.531 42.8442H165.464L165.199 44.3054H168.714L168.438 45.8942H164.339C163.649 45.8942 163.296 45.3754 163.403 44.7508L164.52 38.4824H169.768L169.481 40.0712V40.0685Z" fill="#FAFF00"/>
<path d="M174.718 45.8942L175.75 40.0684H173.888L174.156 38.4796H179.661L179.363 40.0684H177.468L176.425 45.8942H174.721H174.718Z" fill="#FAFF00"/>
<path d="M188.461 41.8067C189.537 42.0294 189.93 42.8659 189.75 43.8708C189.526 45.1419 188.526 45.8942 186.863 45.8942H183.03L184.349 38.4824H187.576C189.195 38.4824 190.26 39.1179 190.025 40.4107C189.897 41.1739 189.343 41.6274 188.461 41.8094V41.8067ZM186.801 42.6541H185.332L185.012 44.4113H186.62C187.44 44.4113 187.909 44.1152 187.994 43.5856C188.111 42.8876 187.674 42.6541 186.801 42.6541ZM185.82 39.9327L185.553 41.383H187.044C187.726 41.383 188.109 41.1277 188.182 40.704C188.289 40.1309 187.915 39.93 187.169 39.93H185.818L185.82 39.9327Z" fill="#FAFF00"/>
<path d="M194.454 41.7849C194.837 39.7316 196.308 38.3763 198.618 38.3763C201.131 38.3763 202.441 40.2503 201.993 42.548C201.567 44.7181 200.131 46 197.821 46C195.383 46 193.987 44.2211 194.457 41.7849H194.454ZM200.257 42.3552C200.503 41.0543 199.981 39.9733 198.523 39.9733C197.245 39.9733 196.426 40.6822 196.191 42.0076C195.945 43.2786 196.478 44.3895 197.958 44.3895C199.298 44.3895 200.044 43.5855 200.257 42.3552Z" fill="#FAFF00"/>
<path d="M210.862 45.8941L210.649 44.422H207.785L207.04 45.8941H205.188L208.637 39.5931C209.202 38.5664 209.573 38.3845 210.286 38.3845C210.829 38.3845 211.351 38.5637 211.52 39.5931L212.585 45.8941H210.86H210.862ZM208.541 42.9174H210.425L209.999 40.0059L208.541 42.9174Z" fill="#FAFF00"/>
<path d="M217.792 45.8942L218.824 40.0684H216.962L217.23 38.4796H222.734L222.437 40.0684H220.542L219.499 45.8942H217.795H217.792Z" fill="#FAFF00"/>
<path d="M226.107 43.3846H227.917C227.759 44.2537 228.387 44.5497 229.173 44.5497C229.959 44.5497 230.462 44.2944 230.568 43.8082C230.697 43.1727 229.897 42.95 229.015 42.7382C227.491 42.3552 226.661 41.6056 226.94 40.2395C227.163 39.1368 228.078 38.3763 230.039 38.3763C232.106 38.3763 232.87 39.3704 232.616 40.674H230.88C230.986 40.1553 230.667 39.7941 229.858 39.7941C229.252 39.7941 228.794 39.9733 228.709 40.3753C228.57 40.9782 229.146 41.1683 229.954 41.3829C231.647 41.8066 232.627 42.453 232.338 43.9549C232.103 45.2042 231.06 46 228.985 46C226.77 46 225.834 45.0033 226.109 43.3846H226.107Z" fill="#FAFF00"/>
<path d="M40.9933 0L32.7144 22.3658C31.3436 25.8748 27.9141 28.1644 24.1405 28.1644L5.85144 28.2459C1.73653 28.2459 -1.10594 24.104 0.414959 20.3044L1.99867 15.9345H14.2942C13.8055 17.249 14.783 18.664 16.2056 18.664H20.0748C21.1533 18.664 22.1336 18.0312 22.524 17.0073L28.7469 0H40.9933Z" fill="#FAFF00"/>
<path d="M49.1195 18.664H62.3052L58.7801 28.1671H32.7637L43.096 0H69.1288L65.6529 9.5031H52.4699L51.6862 11.646H57.8791L56.096 16.5184H49.9032L49.1195 18.6613V18.664Z" fill="#FAFF00"/>
<path d="M67.7827 9.5031L71.2286 0H101.341L97.8595 9.5031H88.3108L81.5364 28.1671H69.1289L75.0377 12.0615L82.1371 9.50582H67.7827V9.5031Z" fill="#FAFF00"/>
<path d="M131.106 16.5591L128.952 22.4065C127.581 25.9155 124.152 28.2051 120.378 28.2051H102.007C97.892 28.2051 95.0496 24.0633 96.5705 20.2637L101.9 5.83926C103.32 2.33025 106.701 0.0407104 110.474 0.0407104H128.845C132.96 0.0407104 135.803 4.18253 134.282 7.98214L132.616 12.2706H120.321C120.809 10.9561 119.832 9.54109 118.409 9.54109H114.54C113.462 9.54109 112.481 10.2228 112.091 11.1978L110.229 15.9236C109.691 17.287 110.668 18.702 112.091 18.702H116.192C117.271 18.702 118.251 18.0692 118.641 17.0453L118.838 16.5591H131.106Z" fill="#FAFF00"/>
<path d="M139.252 0.0407104H158.687C169.219 0.0407104 171.963 15.0001 160.697 19.1909L163.987 28.2051H151.127L148.219 20.2637H144.702L141.796 28.2051H128.949L139.252 0.0407104ZM146.485 15.3912H151.192C157.366 15.3912 157.268 8.81322 152.759 8.81322H148.89L146.487 15.3912H146.485Z" fill="#FAFF00"/>
<path d="M204.249 7.98489L198.875 22.5804C197.505 26.0894 194.075 28.3789 190.301 28.3789L172.029 28.2078C167.914 28.2078 165.071 24.066 166.592 20.2664L171.868 5.842C173.287 2.333 176.668 0.043457 180.441 0.043457H198.812C202.927 0.043457 205.77 4.18528 204.249 7.98489ZM188.376 9.54384H184.507C183.429 9.54384 182.448 10.2255 182.058 11.2006L180.332 15.9752C179.794 17.2897 180.772 18.7047 182.194 18.7047H186.064C187.142 18.7047 188.122 18.0719 188.513 17.048L190.288 12.3223C190.776 10.9588 189.799 9.54384 188.376 9.54384Z" fill="#FAFF00"/>
<path d="M219.338 11.6867H222.423C238.197 11.6867 233.643 28.2051 218.505 28.2051H200.232L203.266 19.7748H217.967C220.809 19.7748 220.905 16.5591 217.819 16.5591H214.734C199.009 16.5591 203.514 0.0407104 218.652 0.0407104H236.974L233.916 8.47101H219.19C216.397 8.47101 216.252 11.6867 219.338 11.6867Z" fill="#FAFF00"/>
<path d="M249.906 11.6867H252.992C268.766 11.6867 264.211 28.2051 249.073 28.2051H230.801L233.834 19.7748H248.535C251.378 19.7748 251.473 16.5591 248.388 16.5591H245.302C229.577 16.5591 234.083 0.0407104 249.221 0.0407104H267.543L264.484 8.47101H249.759C246.965 8.47101 246.821 11.6867 249.906 11.6867Z" fill="#FAFF00"/>
</g>
<defs>
<clipPath id="clip0_938_3058">
<rect width="270" height="46" fill="white"/>
</clipPath>
</defs>
</svg>
