<svg width="189" height="20" viewBox="0 0 189 20" fill="none" xmlns="http://www.w3.org/2000/svg">
<path d="M184.199 17.5959C184.199 16.2828 185.277 15.2033 186.6 15.2033C187.923 15.2033 189.001 16.2828 189.001 17.5959C189.001 18.9089 187.913 20 186.6 20C185.287 20 184.199 18.9204 184.199 17.5959ZM184.679 17.5959C184.679 18.6754 185.531 19.5195 186.6 19.5195C187.668 19.5195 188.509 18.6754 188.509 17.5959C188.509 16.5164 187.666 15.6837 186.6 15.6837C185.533 15.6837 184.679 16.5278 184.679 17.5959ZM185.724 18.6965V16.4647H186.802C187.347 16.4647 187.613 16.8379 187.613 17.2667C187.613 17.5768 187.473 17.8658 187.187 17.9921L187.678 18.6965H187.145L186.707 18.0668H186.195V18.6965H185.724ZM186.195 16.9126V17.6284H186.739C186.996 17.6284 187.145 17.4581 187.145 17.2648C187.145 17.0829 186.996 16.9126 186.739 16.9126H186.195Z" fill="url(#paint0_linear_941_3171)"/>
<path d="M28.6955 0L22.9003 15.7624C21.9408 18.2353 19.5401 19.8489 16.8986 19.8489L4.09647 19.9063C1.21607 19.9063 -0.773638 16.9874 0.29098 14.3096L1.39956 11.2298H10.0063C9.66421 12.1562 10.3485 13.1535 11.3443 13.1535H14.0527C14.8076 13.1535 15.4938 12.7075 15.7671 11.9859L20.1231 0H28.6955Z" fill="url(#paint1_linear_941_3171)"/>
<path d="M34.383 13.1535H43.6129L41.1454 19.8508H22.9341L30.1666 0H48.3894L45.9562 6.69733H36.7283L36.1797 8.20753H40.5146L39.2665 11.6414H34.9316L34.383 13.1516V13.1535Z" fill="url(#paint2_linear_941_3171)"/>
<path d="M47.447 6.69733L49.8591 0H70.9374L68.5005 6.69733H61.8165L57.0745 19.8508H48.3893L52.5255 8.50038L57.495 6.69924H47.447V6.69733Z" fill="url(#paint3_linear_941_3171)"/>
<path d="M91.774 11.6705L90.266 15.7915C89.3065 18.2644 86.9058 19.878 84.2643 19.878H71.4048C68.5244 19.878 66.5347 16.9591 67.5993 14.2813L71.3303 4.11565C72.3242 1.64267 74.6904 0.0291138 77.3319 0.0291138H90.1914C93.0718 0.0291138 95.0615 2.94807 93.9969 5.62585L92.831 8.64817H84.2242C84.5663 7.72176 83.8821 6.72453 82.8863 6.72453H80.1779C79.4229 6.72453 78.7367 7.20496 78.4634 7.89211L77.1599 11.2226C76.7833 12.1835 77.4676 13.1807 78.4634 13.1807H81.3342C82.0892 13.1807 82.7754 12.7347 83.0487 12.0131L83.1863 11.6705H91.774Z" fill="url(#paint4_linear_941_3171)"/>
<path d="M97.4744 0.0291138H111.079C118.451 0.0291138 120.372 10.5718 112.486 13.5252L114.789 19.878H105.787L103.751 14.2813H101.289L99.2558 19.878H90.2629L97.4744 0.0291138ZM102.538 10.8474H105.833C110.154 10.8474 110.085 6.21156 106.93 6.21156H104.221L102.539 10.8474H102.538Z" fill="url(#paint5_linear_941_3171)"/>
<path d="M142.974 5.62707L139.212 15.9133C138.253 18.3863 135.852 19.9998 133.211 19.9998L120.42 19.8792C117.54 19.8792 115.55 16.9603 116.614 14.2825L120.307 4.11687C121.301 1.64389 123.667 0.0303345 126.309 0.0303345H139.168C142.049 0.0303345 144.038 2.94929 142.974 5.62707ZM131.863 6.72575H129.155C128.4 6.72575 127.714 7.20618 127.44 7.89333L126.232 11.2583C125.856 12.1847 126.54 13.1819 127.536 13.1819H130.244C130.999 13.1819 131.685 12.7359 131.959 12.0143L133.201 8.68384C133.543 7.72298 132.859 6.72575 131.863 6.72575Z" fill="url(#paint6_linear_941_3171)"/>
<path d="M153.535 8.23664H155.695C166.736 8.23664 163.548 19.878 152.952 19.878H140.161L142.285 13.9367H152.575C154.565 13.9367 154.632 11.6705 152.472 11.6705H150.312C139.305 11.6705 142.459 0.0291138 153.055 0.0291138H165.88L163.739 5.97038H153.432C151.476 5.97038 151.375 8.23664 153.535 8.23664Z" fill="url(#paint7_linear_941_3171)"/>
<path d="M174.933 8.23664H177.093C188.135 8.23664 184.947 19.878 174.35 19.878H161.559L163.683 13.9367H173.974C175.963 13.9367 176.03 11.6705 173.87 11.6705H171.71C160.703 11.6705 163.857 0.0291138 174.453 0.0291138H187.278L185.138 5.97038H174.83C172.874 5.97038 172.773 8.23664 174.933 8.23664Z" fill="url(#paint8_linear_941_3171)"/>
<defs>
<linearGradient id="paint0_linear_941_3171" x1="186.6" y1="20" x2="186.6" y2="12.4438" gradientUnits="userSpaceOnUse">
<stop stop-color="#FAFF00"/>
<stop offset="1" stop-color="#FFEE97"/>
</linearGradient>
<linearGradient id="paint1_linear_941_3171" x1="14.3477" y1="19.9063" x2="14.3477" y2="-11.4521" gradientUnits="userSpaceOnUse">
<stop stop-color="#FAFF00"/>
<stop offset="1" stop-color="#FFEE97"/>
</linearGradient>
<linearGradient id="paint2_linear_941_3171" x1="35.6617" y1="19.8508" x2="35.6617" y2="-11.4202" gradientUnits="userSpaceOnUse">
<stop stop-color="#FAFF00"/>
<stop offset="1" stop-color="#FFEE97"/>
</linearGradient>
<linearGradient id="paint3_linear_941_3171" x1="59.1922" y1="19.8508" x2="59.1922" y2="-11.4202" gradientUnits="userSpaceOnUse">
<stop stop-color="#FAFF00"/>
<stop offset="1" stop-color="#FFEE97"/>
</linearGradient>
<linearGradient id="paint4_linear_941_3171" x1="80.7981" y1="19.878" x2="80.7981" y2="-11.39" gradientUnits="userSpaceOnUse">
<stop stop-color="#FAFF00"/>
<stop offset="1" stop-color="#FFEE97"/>
</linearGradient>
<linearGradient id="paint5_linear_941_3171" x1="103.917" y1="19.878" x2="103.917" y2="-11.39" gradientUnits="userSpaceOnUse">
<stop stop-color="#FAFF00"/>
<stop offset="1" stop-color="#FFEE97"/>
</linearGradient>
<linearGradient id="paint6_linear_941_3171" x1="129.794" y1="19.9998" x2="129.794" y2="-11.4581" gradientUnits="userSpaceOnUse">
<stop stop-color="#FAFF00"/>
<stop offset="1" stop-color="#FFEE97"/>
</linearGradient>
<linearGradient id="paint7_linear_941_3171" x1="153.021" y1="19.878" x2="153.021" y2="-11.39" gradientUnits="userSpaceOnUse">
<stop stop-color="#FAFF00"/>
<stop offset="1" stop-color="#FFEE97"/>
</linearGradient>
<linearGradient id="paint8_linear_941_3171" x1="174.419" y1="19.878" x2="174.419" y2="-11.39" gradientUnits="userSpaceOnUse">
<stop stop-color="#FAFF00"/>
<stop offset="1" stop-color="#FFEE97"/>
</linearGradient>
</defs>
</svg>
