<svg width="520" height="88" viewBox="0 0 520 88" fill="none" xmlns="http://www.w3.org/2000/svg">
<g clip-path="url(#clip0_813_743)">
<path d="M506.795 47.7643C506.795 44.2 509.761 41.2697 513.4 41.2697C517.039 41.2697 520.005 44.2 520.005 47.7643C520.005 51.3286 517.013 54.2901 513.4 54.2901C509.787 54.2901 506.795 51.3598 506.795 47.7643ZM508.115 47.7643C508.115 50.6947 510.461 52.986 513.4 52.986C516.34 52.986 518.654 50.6947 518.654 47.7643C518.654 44.8339 516.335 42.5738 513.4 42.5738C510.466 42.5738 508.115 44.8651 508.115 47.7643ZM510.992 50.7519V44.6936H513.958C515.456 44.6936 516.187 45.7068 516.187 46.8706C516.187 47.7124 515.803 48.4969 515.015 48.8398L516.366 50.7519H514.899L513.695 49.0425H512.285V50.7519H510.992ZM512.285 45.9094V47.8526H513.784C514.489 47.8526 514.899 47.3902 514.899 46.8654C514.899 46.3719 514.489 45.9094 513.784 45.9094H512.285Z" fill="#FAFF00"/>
<path d="M66.9917 79.9362C67.728 76.0083 70.5572 73.4156 75.0114 73.4156C79.2132 73.4156 81.5533 75.9459 81.6532 79.3699H78.2298C78.0457 77.6865 76.9151 76.4707 74.8063 76.4707C72.3662 76.4707 70.7886 77.8268 70.3363 80.3623C69.8841 82.7523 70.8675 84.9189 73.7177 84.9189C75.9317 84.9189 77.2674 83.8278 77.8985 82.0613H81.364C80.3596 85.8074 77.6723 88 73.4495 88C68.8586 88 66.0872 84.5968 66.9917 79.9362Z" fill="#FAFF00"/>
<path d="M90.183 81.6354L91.6187 73.6132H94.9422L93.4435 81.8588C93.1332 83.6617 93.5644 85.0386 95.6995 85.0386C97.8345 85.0386 98.5287 83.6409 98.839 81.8588L100.317 73.6132H103.64L102.084 82.2848C101.468 85.5633 99.8487 88.0001 95.4839 88.0001C91.1191 88.0001 89.5151 85.4282 90.1935 81.6406L90.183 81.6354Z" fill="#FAFF00"/>
<path d="M110.829 82.9965H114.316C114.011 84.6591 115.215 85.2255 116.735 85.2255C118.254 85.2255 119.217 84.7371 119.422 83.807C119.669 82.5912 118.128 82.1652 116.43 81.7599C113.495 81.0273 111.897 79.5933 112.433 76.9799C112.864 74.8704 114.626 73.4156 118.402 73.4156C122.377 73.4156 123.855 75.3172 123.366 77.8112H120.021C120.226 76.8188 119.611 76.1278 118.055 76.1278C116.887 76.1278 116.004 76.4707 115.841 77.2396C115.572 78.3931 116.682 78.7568 118.239 79.1673C121.499 79.9778 123.387 81.2144 122.83 84.0876C122.377 86.4776 120.368 88 116.372 88C112.107 88 110.303 86.0932 110.834 82.9965H110.829Z" fill="#FAFF00"/>
<path d="M133.794 87.7975L135.782 76.6527H132.196L132.706 73.6132H143.307L142.734 76.6527H139.085L137.076 87.7975H133.794Z" fill="#FAFF00"/>
<path d="M150.112 79.9362C150.848 76.0083 153.678 73.4156 158.127 73.4156C162.965 73.4156 165.489 77.0006 164.626 81.3962C163.806 85.5476 161.04 88 156.591 88C151.895 88 149.208 84.5968 150.112 79.9362ZM161.287 81.0273C161.76 78.5386 160.756 76.4707 157.943 76.4707C155.481 76.4707 153.904 77.8268 153.452 80.3623C152.978 82.7939 154.004 84.9189 156.854 84.9189C159.436 84.9189 160.872 83.381 161.282 81.0273H161.287Z" fill="#FAFF00"/>
<path d="M190.815 75.8836L189.669 87.7974H186.387L187.518 78.1126L182.822 86.7219C182.291 87.7143 181.733 87.9169 180.997 87.9169C180.219 87.9169 179.625 87.7143 179.441 86.7219L177.842 78.0502L175.502 87.7974H172.12L175.218 76.0863C175.77 74.0599 176.732 73.4312 178.026 73.4312C179.483 73.4312 179.788 74.0391 180.035 75.2965L181.555 83.7032L186.125 75.2965C187.008 73.6754 187.807 73.4312 188.833 73.4312C190.105 73.4312 190.984 74.0391 190.821 75.8836H190.815Z" fill="#FAFF00"/>
<path d="M229.836 75.8836L228.689 87.7974H225.408L226.533 78.1125L221.837 86.7218C221.306 87.7142 220.748 87.9169 220.012 87.9169C219.234 87.9169 218.64 87.7142 218.455 86.7218L216.857 78.0502L214.522 87.7974H211.141L214.238 76.0862C214.79 74.0599 215.758 73.4312 217.046 73.4312C218.503 73.4312 218.808 74.0391 219.055 75.2964L220.57 83.7031L225.145 75.2964C226.028 73.6754 226.827 73.4312 227.853 73.4312C229.126 73.4312 230.004 74.0391 229.841 75.8836H229.836Z" fill="#FAFF00"/>
<path d="M244.245 73.6132L243.735 76.4916L241.705 87.7975H238.402L238.917 84.9191L240.947 73.6132H244.25H244.245Z" fill="#FAFF00"/>
<path d="M264.154 73.613H267.478L265.264 85.9893C265.038 87.2674 264.175 87.974 263.092 87.974C262.23 87.974 261.677 87.6519 261.309 86.9609L256.776 78.7984L255.157 87.7922H251.854L254.068 75.4731C254.315 74.0547 255.093 73.426 256.14 73.426C256.734 73.426 257.286 73.6702 257.655 74.356L262.472 83.0693L264.154 73.6078V73.613Z" fill="#FAFF00"/>
<path d="M280.93 73.6132L280.42 76.4916L278.39 87.7975H275.087L275.603 84.9191L277.633 73.6132H280.935H280.93Z" fill="#FAFF00"/>
<path d="M303.522 73.6131H306.845L305.068 83.4798C304.495 86.618 302.996 87.7923 300.414 87.7923H298.631L299.146 84.9138H300.151C301.176 84.9138 301.566 84.4878 301.75 83.4538L303.527 73.6079L303.522 73.6131Z" fill="#FAFF00"/>
<path d="M326.408 76.6527H319.64L319.167 79.2869H325.051L324.578 81.9627H318.672L318.162 84.758H324.93L324.399 87.7975H316.506C315.175 87.7975 314.497 86.8051 314.702 85.6101L316.853 73.6184H326.96L326.408 76.6579V76.6527Z" fill="#FAFF00"/>
<path d="M336.494 87.7975L338.482 76.6527H334.896L335.411 73.6132H346.013L345.44 76.6527H341.79L339.781 87.7975H336.5H336.494Z" fill="#FAFF00"/>
<path d="M362.962 79.9779C365.034 80.404 365.791 82.0043 365.444 83.9267C365.013 86.3583 363.088 87.7975 359.885 87.7975H352.502L355.042 73.6184H361.258C364.376 73.6184 366.427 74.8342 365.975 77.3073C365.728 78.7673 364.66 79.635 362.962 79.9831V79.9779ZM359.764 81.599H356.935L356.32 84.9606H359.417C360.995 84.9606 361.9 84.3943 362.063 83.3811C362.289 82.0458 361.447 81.599 359.764 81.599ZM357.877 76.3929L357.361 79.1674H360.233C361.547 79.1674 362.283 78.679 362.425 77.8685C362.631 76.7722 361.91 76.3877 360.474 76.3877H357.871L357.877 76.3929Z" fill="#FAFF00"/>
<path d="M374.505 79.9362C375.241 76.0083 378.076 73.4156 382.525 73.4156C387.363 73.4156 389.887 77.0006 389.024 81.3962C388.204 85.5476 385.438 88 380.989 88C376.293 88 373.606 84.5968 374.51 79.9362H374.505ZM385.68 81.0273C386.153 78.5386 385.149 76.4707 382.341 76.4707C379.879 76.4707 378.302 77.8268 377.85 80.3623C377.376 82.7939 378.402 84.9189 381.252 84.9189C383.834 84.9189 385.27 83.381 385.68 81.0273Z" fill="#FAFF00"/>
<path d="M406.105 87.7974L405.695 84.9813H400.178L398.743 87.7974H395.177L401.819 75.7433C402.908 73.7793 403.623 73.4312 404.995 73.4312C406.042 73.4312 407.046 73.7741 407.372 75.7433L409.423 87.7974H406.1H406.105ZM401.635 82.1028H405.264L404.443 76.533L401.635 82.1028Z" fill="#FAFF00"/>
<path d="M419.452 87.7975L421.44 76.6527H417.853L418.369 73.6132H428.97L428.397 76.6527H424.748L422.739 87.7975H419.457H419.452Z" fill="#FAFF00"/>
<path d="M435.465 82.9965H438.951C438.646 84.6591 439.856 85.2255 441.37 85.2255C442.885 85.2255 443.853 84.7371 444.058 83.807C444.305 82.5912 442.764 82.1652 441.065 81.7599C438.131 81.0273 436.532 79.5933 437.069 76.9799C437.5 74.8704 439.262 73.4156 443.037 73.4156C447.018 73.4156 448.491 75.3172 448.002 77.8112H444.657C444.862 76.8188 444.247 76.1278 442.69 76.1278C441.523 76.1278 440.639 76.4707 440.476 77.2396C440.208 78.3931 441.318 78.7568 442.874 79.1673C446.135 79.9778 448.023 81.2144 447.465 84.0876C447.013 86.4776 445.004 88 441.008 88C436.743 88 434.939 86.0932 435.47 82.9965H435.465Z" fill="#FAFF00"/>
<path d="M78.9502 0L63.0056 42.7868C60.3657 49.4997 53.7606 53.8797 46.493 53.8797L11.2696 54.0355C3.34457 54.0355 -2.12984 46.1121 0.79931 38.8432L3.84941 30.4833H27.5298C26.5884 32.9981 28.4711 35.705 31.2109 35.705H38.6626C40.7398 35.705 42.6278 34.4944 43.3798 32.5356L55.3646 0H78.9502Z" fill="#FAFF00"/>
<path d="M94.6004 35.705H119.995L113.206 53.8849H63.1002L82.9995 0H133.137L126.442 18.1798H101.053L99.5437 22.2793H111.471L108.037 31.6004H96.1097L94.6004 35.6998V35.705Z" fill="#FAFF00"/>
<path d="M130.544 18.1798L137.181 0H195.175L188.47 18.1798H170.08L157.033 53.8849H133.137L144.517 23.0742L158.19 18.185H130.544V18.1798Z" fill="#FAFF00"/>
<path d="M252.501 31.6783L248.352 42.8647C245.712 49.5776 239.107 53.9576 231.839 53.9576H196.458C188.533 53.9576 183.059 46.0341 185.988 38.7653L196.253 11.1708C198.987 4.45794 205.498 0.0779419 212.765 0.0779419H248.147C256.072 0.0779419 261.546 8.00142 258.617 15.2702L255.409 23.4743H231.729C232.67 20.9596 230.787 18.2526 228.048 18.2526H220.596C218.519 18.2526 216.631 19.5567 215.879 21.422L212.292 30.4625C211.256 33.0708 213.139 35.7778 215.879 35.7778H223.777C225.855 35.7778 227.743 34.5672 228.495 32.6084L228.873 31.6783H252.501Z" fill="#FAFF00"/>
<path d="M268.188 0.0779419H305.62C325.903 0.0779419 331.188 28.696 309.49 36.713L315.827 53.9576H291.058L285.458 38.7653H278.684L273.089 53.9576H248.346L268.188 0.0779419ZM282.118 29.4442H291.185C303.075 29.4442 302.885 16.8601 294.203 16.8601H286.751L282.124 29.4442H282.118Z" fill="#FAFF00"/>
<path d="M393.368 15.2754L383.019 43.1973C380.379 49.9101 373.774 54.2901 366.506 54.2901L331.314 53.9628C323.389 53.9628 317.915 46.0393 320.844 38.7705L331.004 11.176C333.739 4.46313 340.249 0.0831299 347.517 0.0831299H382.898C390.823 0.0831299 396.297 8.00661 393.368 15.2754ZM362.799 18.2578H355.347C353.27 18.2578 351.382 19.5619 350.63 21.4272L347.306 30.5613C346.27 33.076 348.153 35.783 350.893 35.783H358.345C360.422 35.783 362.31 34.5724 363.062 32.6136L366.48 23.573C367.421 20.9647 365.539 18.2578 362.799 18.2578Z" fill="#FAFF00"/>
<path d="M422.428 22.3572H428.371C458.751 22.3572 449.979 53.9576 420.824 53.9576H385.633L391.475 37.8301H419.788C425.263 37.8301 425.447 31.6783 419.504 31.6783H413.562C383.277 31.6783 391.954 0.0779419 421.108 0.0779419H456.395L450.505 16.2055H422.144C416.765 16.2055 416.486 22.3572 422.428 22.3572Z" fill="#FAFF00"/>
<path d="M481.301 22.3572H487.243C517.623 22.3572 508.851 53.9576 479.697 53.9576H444.505L450.347 37.8301H478.661C484.135 37.8301 484.319 31.6783 478.377 31.6783H472.434C442.149 31.6783 450.826 0.0779419 479.981 0.0779419H515.267L509.377 16.2055H481.017C475.637 16.2055 475.358 22.3572 481.301 22.3572Z" fill="#FAFF00"/>
</g>
<defs>
<clipPath id="clip0_813_743">
<rect width="520" height="88" fill="white"/>
</clipPath>
</defs>
</svg>
